<svg width="32" height="32" viewBox="0 0 32 32" fill="none" xmlns="http://www.w3.org/2000/svg">
<circle cx="16" cy="16" r="16" fill="#FDEDEF"/>
<path d="M21 7.33989C22.5083 8.21075 23.7629 9.46042 24.6398 10.9652C25.5167 12.47 25.9854 14.1777 25.9994 15.9192C26.0135 17.6608 25.5725 19.3758 24.72 20.8946C23.8676 22.4133 22.6332 23.6831 21.1392 24.5782C19.6452 25.4733 17.9434 25.9627 16.2021 25.998C14.4608 26.0332 12.7406 25.6131 11.2116 24.7791C9.68256 23.9452 8.39787 22.7264 7.48467 21.2434C6.57146 19.7604 6.06141 18.0646 6.005 16.3239L6 15.9999L6.005 15.6759C6.061 13.9489 6.56355 12.2659 7.46364 10.7909C8.36373 9.31592 9.63065 8.09934 11.1409 7.25977C12.6511 6.42021 14.3531 5.98629 16.081 6.00033C17.8089 6.01437 19.5036 6.47589 21 7.33989ZM14.511 13.1399C14.3015 13.0152 14.0536 12.9713 13.814 13.0165C13.5744 13.0617 13.3596 13.193 13.2099 13.3855C13.0603 13.578 12.9862 13.8185 13.0015 14.0619C13.0168 14.3052 13.1204 14.5346 13.293 14.7069L14.585 15.9999L13.293 17.2929L13.21 17.3869C13.0546 17.5879 12.9815 17.8405 13.0056 18.0934C13.0297 18.3463 13.1492 18.5806 13.3397 18.7486C13.5303 18.9167 13.7777 19.0059 14.0316 18.9981C14.2856 18.9904 14.527 18.8862 14.707 18.7069L16 17.4149L17.293 18.7069L17.387 18.7899C17.588 18.9453 17.8406 19.0184 18.0935 18.9943C18.3464 18.9702 18.5807 18.8507 18.7488 18.6602C18.9168 18.4696 19.006 18.2222 18.9982 17.9683C18.9905 17.7143 18.8863 17.4728 18.707 17.2929L17.415 15.9999L18.707 14.7069L18.79 14.6129C18.9454 14.4119 19.0185 14.1593 18.9944 13.9064C18.9703 13.6534 18.8508 13.4192 18.6603 13.2511C18.4697 13.0831 18.2223 12.9939 17.9684 13.0017C17.7144 13.0094 17.473 13.1135 17.293 13.2929L16 14.5849L14.707 13.2929L14.613 13.2099L14.511 13.1399Z" fill="#ED4C5C"/>
</svg>
