<svg width="32" height="32" viewBox="0 0 32 32" fill="none" xmlns="http://www.w3.org/2000/svg">
<circle cx="16" cy="16" r="16" fill="#FFF6E0"/>
<path d="M21 7.33989C22.5202 8.21758 23.7826 9.47997 24.6603 11.0002C25.538 12.5204 26 14.2448 26 16.0002C26 17.7556 25.5379 19.48 24.6602 21.0002C23.7825 22.5204 22.5201 23.7828 20.9999 24.6605C19.4797 25.5381 17.7552 26.0002 15.9998 26.0001C14.2445 26.0001 12.52 25.538 10.9998 24.6603C9.47965 23.7826 8.21729 22.5202 7.33963 21C6.46198 19.4797 5.99996 17.7553 6 15.9999L6.005 15.6759C6.061 13.9489 6.56355 12.2659 7.46364 10.7909C8.36373 9.31592 9.63065 8.09934 11.1409 7.25977C12.6511 6.42021 14.3531 5.98629 16.081 6.00033C17.8089 6.01437 19.5036 6.47589 21 7.33989ZM16 18.9999C15.7348 18.9999 15.4804 19.1052 15.2929 19.2928C15.1054 19.4803 15 19.7347 15 19.9999V20.0099C15 20.2751 15.1054 20.5295 15.2929 20.717C15.4804 20.9045 15.7348 21.0099 16 21.0099C16.2652 21.0099 16.5196 20.9045 16.7071 20.717C16.8946 20.5295 17 20.2751 17 20.0099V19.9999C17 19.7347 16.8946 19.4803 16.7071 19.2928C16.5196 19.1052 16.2652 18.9999 16 18.9999ZM16 11.9999C15.7348 11.9999 15.4804 12.1052 15.2929 12.2928C15.1054 12.4803 15 12.7347 15 12.9999V16.9999C15 17.2651 15.1054 17.5195 15.2929 17.707C15.4804 17.8945 15.7348 17.9999 16 17.9999C16.2652 17.9999 16.5196 17.8945 16.7071 17.707C16.8946 17.5195 17 17.2651 17 16.9999V12.9999C17 12.7347 16.8946 12.4803 16.7071 12.2928C16.5196 12.1052 16.2652 11.9999 16 11.9999Z" fill="#FFC107"/>
</svg>
