<svg width="32" height="32" viewBox="0 0 32 32" fill="none" xmlns="http://www.w3.org/2000/svg">
<circle cx="16" cy="16" r="16" fill="#D5F7DE"/>
<path d="M21 7.33989C22.5083 8.21075 23.7629 9.46042 24.6398 10.9652C25.5167 12.47 25.9854 14.1777 25.9994 15.9192C26.0135 17.6608 25.5725 19.3758 24.72 20.8946C23.8676 22.4133 22.6332 23.6831 21.1392 24.5782C19.6452 25.4733 17.9434 25.9627 16.2021 25.998C14.4608 26.0332 12.7406 25.6131 11.2116 24.7791C9.68256 23.9452 8.39787 22.7264 7.48467 21.2434C6.57146 19.7604 6.06141 18.0646 6.005 16.3239L6 15.9999L6.005 15.6759C6.061 13.9489 6.56355 12.2659 7.46364 10.7909C8.36373 9.31592 9.63065 8.09934 11.1409 7.25977C12.6511 6.42021 14.3531 5.98629 16.081 6.00033C17.8089 6.01437 19.5036 6.47589 21 7.33989ZM19.707 13.2929C19.5348 13.1207 19.3057 13.0173 19.0627 13.002C18.8197 12.9867 18.5794 13.0606 18.387 13.2099L18.293 13.2929L15 16.5849L13.707 15.2929L13.613 15.2099C13.4206 15.0607 13.1804 14.9869 12.9374 15.0022C12.6944 15.0176 12.4654 15.121 12.2933 15.2932C12.1211 15.4653 12.0177 15.6943 12.0024 15.9373C11.987 16.1803 12.0609 16.4205 12.21 16.6129L12.293 16.7069L14.293 18.7069L14.387 18.7899C14.5624 18.926 14.778 18.9998 15 18.9998C15.222 18.9998 15.4376 18.926 15.613 18.7899L15.707 18.7069L19.707 14.7069L19.79 14.6129C19.9393 14.4205 20.0132 14.1802 19.9979 13.9372C19.9826 13.6942 19.8792 13.4651 19.707 13.2929Z" fill="#34A853"/>
</svg>
