<?xml version="1.0" encoding="UTF-8"?>
<svg id="Layer_2" data-name="Layer 2" xmlns="http://www.w3.org/2000/svg" viewBox="0 0 199.14 196.79">
  <g id="Layer_1-2" data-name="Layer 1">
    <g>
      <path d="M45.62,102.84v-36.56c-.39.49-.76.97-1.13,1.46C12.61,108.77-11.88,160.34,6.09,181.12c.94,1.08,1.99,2.09,3.16,2.99,4.18,3.25,9.08,4.73,14.52,4.73,6.64,0,14.03-2.2,21.86-6.08v-24.61c-15.57,10.44-22.59,9.77-23.34,9.19-.78-.6-3.24-7.51,3.54-26.04,4.32-11.78,11.12-24.95,19.79-38.45Z"/>
      <path d="M126.43,103.09c11.25-16.72,20.07-33.32,25.49-48.13,6.18-16.88,10.62-39.28-3.35-50.14-14.73-11.44-38.44-.99-62.35,18.97-3.24,2.69-6.46,5.53-9.66,8.54V0l-23.53,2.27,1.86,178.86.16,15.67h21.51v-35.88c3.24-2.88,6.46-5.91,9.66-9.06,9.48-9.35,18.71-19.84,27.11-30.63.19-.24.39-.5.57-.74,2.41,2.3,57.76,60.65,57.76,60.65h27.5l-72.72-78.04ZM86.21,120.76c-3.2,3.71-6.42,7.25-9.66,10.63V62.61c3.2-3.54,6.42-6.91,9.66-10.1,8.48-8.4,16.93-15.54,24.94-21.02,12.54-8.59,19.76-10.16,22.77-10.16.91,0,1.42.15,1.6.28.76.6,3.22,7.53-3.56,26.06-6.65,18.16-19.23,39.65-35.44,60.51-3.38,4.35-6.83,8.56-10.31,12.59Z"/>
    </g>
  </g>
</svg>